PathFileType	4	(X/Y/Z)	..\data\2014001\dynamic\2014001_C4_05.trc
DataRate	CameraRate	NumFrames	NumMarkers	Units	OrigDataRate	OrigDataStartFrame	OrigNumFrames
100.000000	100.000000	4	52	mm	100.000000	0	156
Frame#	Time	L_IAS			L_IPS			R_IPS			R_IAS			L_FTC			L_FLE			L_FME			L_FAX			L_TTC			L_FAL			L_TAM			L_FCC			L_FM1			L_FM2			L_FM5			R_FTC			R_FLE			R_FME			R_FAX			R_TTC			R_FAL			R_TAM			R_FCC			R_FM1			R_FM2			R_FM5			CV7			TV10			SXS			SJN			L_SIA			L_SRS			L_SAA			L_SAE			L_HLE			L_HME			L_UOA			L_RSP			L_UHE			L_HM2			L_HM5			R_SIA			R_SRS			R_SAA			R_SAE			R_HLE			R_HME			R_UOA			R_RSP			R_UHE			R_HM2			R_HM5			
		X1	Y1	Z1	X2	Y2	Z2	X3	Y3	Z3	X4	Y4	Z4	X5	Y5	Z5	X6	Y6	Z6	X7	Y7	Z7	X8	Y8	Z8	X9	Y9	Z9	X10	Y10	Z10	X11	Y11	Z11	X12	Y12	Z12	X13	Y13	Z13	X14	Y14	Z14	X15	Y15	Z15	X16	Y16	Z16	X17	Y17	Z17	X18	Y18	Z18	X19	Y19	Z19	X20	Y20	Z20	X21	Y21	Z21	X22	Y22	Z22	X23	Y23	Z23	X24	Y24	Z24	X25	Y25	Z25	X26	Y26	Z26	X27	Y27	Z27	X28	Y28	Z28	X29	Y29	Z29	X30	Y30	Z30	X31	Y31	Z31	X32	Y32	Z32	X33	Y33	Z33	X34	Y34	Z34	X35	Y35	Z35	X36	Y36	Z36	X37	Y37	Z37	X38	Y38	Z38	X39	Y39	Z39	X40	Y40	Z40	X41	Y41	Z41	X42	Y42	Z42	X43	Y43	Z43	X44	Y44	Z44	X45	Y45	Z45	X46	Y46	Z46	X47	Y47	Z47	X48	Y48	Z48	X49	Y49	Z49	X50	Y50	Z50	X51	Y51	Z51	X52	Y52	Z52	

1	0	-1209.225830078125	852.0306396484377	76.71305084228503	-1382.967651367188	893.2493896484377	168.3250885009764	-1379.429077148438	884.4575195312502	256.8858032226561	-1197.566162109375	853.6949462890627	314.6537170410155	-1307.055053710938	779.0552368164065	21.86225700378402	-1406.927734375	438.2449645996095	69.85177612304672	-1384.975341796875	421.8827209472657	181.1806488037108	-1444.354858398438	384.3120117187501	68.35749816894516	-1392.165771484375	345.4122314453126	115.4447708129881	-1574.3359375	89.39231109619142	118.566825866699	-1549.665649414063	97.05754852294925	206.9806365966795	-1626.519165039063	63.94540786743165	164.0707702636717	-1449.693725585938	26.6618881225586	193.1581268310546	-1436.631103515625	35.91984558105469	132.1417999267577	-1493.233764648438	24.61215972900391	86.9492111206053	-1278.992797851563	753.2471923828126	380.906524658203	-1120.236206054688	437.1534423828126	356.7298889160156	-1093.024291992188	432.9146728515626	237.4104461669921	-1108.6005859375	375.3411560058594	359.7189941406249	-1041.933715820313	397.3896484375001	317.4342346191406	-973.0347900390627	84.06865692138673	326.2516174316406	-940.971374511719	121.4651412963867	249.4279022216796	-981.675231933594	29.32152938842774	264.4488830566406	-822.6372070312502	127.5365829467774	278.9687805175781	-834.6238403320315	128.8948516845703	335.6149291992187	-869.3679809570315	82.56259155273439	366.1482543945312	-1329.748168945313	1357.524169921875	213.0820159912108	-1400.804443359375	1128.317260742188	199.2159576416014	-1164.985717773438	1123.54541015625	207.6394500732421	-1204.283935546875	1287.289306640625	216.7723693847655	-1390.246459960938	1171.970703125	98.86636352539048	-1366.9033203125	1300.354248046875	115.6187591552733	-1281.0546875	1301.221923828125	15.28708839416489	-1243.493774414063	1311.581909179688	38.90437698364244	-1217.623291015625	1038.165405273438	-69.79132843017594	-1246.295288085938	991.726257324219	-2.771665334701691	-1240.938232421875	988.1417236328127	-55.73553466796891	-1029.8642578125	894.4739990234377	18.27127265930163	-1047.95654296875	864.2387695312502	-52.81211471557631	-955.253601074219	850.9298095703127	27.39733314514149	-1004.681518554688	799.3486328125002	-44.46891021728528	-1415.637817382813	1165.28271484375	304.9942321777343	-1380.7060546875	1288.70849609375	291.7752075195311	-1314.861450195313	1276.243041992188	400.5573425292968	-1263.979736328125	1279.564575195313	395.3225097656249	-1354.48681640625	982.8333740234377	445.9212646484374	-1377.878662109375	974.2107543945315	368.7442321777343	-1384.524291992188	966.310241699219	412.1054077148437	-1283.385620117188	763.4458618164064	419.4625244140624	-1343.224487304688	766.9129638671876	476.1615295410156	-1261.425170898438	677.1276245117189	437.9962463378906	-1354.573852539063	687.1221313476564	476.5431213378906	
2	0.01	-1194.4208984375	850.475524902344	77.13130950927722	-1367.755737304688	891.2630004882815	170.3656463623045	-1363.812866210938	882.4625244140627	258.7963562011718	-1181.47119140625	852.1013793945315	315.1400756835936	-1293.264282226563	778.1420898437502	22.6305141448973	-1396.0302734375	438.3809814453126	69.57491302490219	-1373.693481445313	421.1257934570314	180.9584503173827	-1434.503662109375	385.1325683593751	67.95169067382797	-1383.121459960938	344.8149414062501	114.7853240966795	-1572.353271484375	93.25829315185548	117.2403411865233	-1547.451049804688	100.5102157592774	205.6181335449217	-1625.17138671875	69.47035980224611	162.8179626464842	-1449.663452148438	26.69820022583009	192.8727416992186	-1436.270874023438	35.64140701293946	131.7159729003905	-1492.979370117188	24.44389533996583	86.71081542968733	-1262.200439453125	751.7399902343751	382.1765747070311	-1103.275390625	436.2459716796876	356.8096923828124	-1076.874145507813	432.3993530273439	237.433120727539	-1091.820678710938	374.1779174804688	359.7477416992187	-1025.337158203125	396.122528076172	316.8916625976562	-959.080261230469	82.4853973388672	325.3257751464843	-926.9714965820315	119.5556182861328	248.2833709716796	-968.686950683594	28.24593353271485	263.5611877441406	-808.6389770507815	124.4402770996094	277.1830444335937	-820.107604980469	125.6137313842774	333.9527282714843	-855.1384277343752	79.45568084716798	364.3361206054687	-1315.279174804688	1355.606811523438	214.6762847900389	-1386.052978515625	1126.253662109375	200.9052886962889	-1150.582153320313	1121.5634765625	209.0616455078124	-1189.751098632813	1285.302490234375	218.312774658203	-1375.99609375	1170.004638671875	100.7376098632811	-1352.550170898438	1298.379638671875	117.2039108276366	-1266.810791015625	1299.039184570313	16.90581512451157	-1229.111450195313	1309.462646484375	40.4608993530272	-1203.596069335938	1036.311157226563	-68.72435760498063	-1231.646240234375	989.5740356445315	-1.600845336914214	-1226.429809570313	985.9602661132815	-54.71196365356462	-1014.480285644531	894.739685058594	20.01166343688953	-1031.790893554688	864.3769531250002	-51.03003311157241	-939.3549804687502	852.3747558593752	29.38364028930653	-987.717712402344	799.987731933594	-42.56192016601575	-1401.159790039063	1163.29638671875	306.4988403320311	-1366.17529296875	1286.82568359375	293.3869628906249	-1300.356323242188	1274.266723632813	402.1692199707031	-1249.619750976563	1277.455932617188	396.9271545410156	-1340.648681640625	980.8566894531252	446.9376831054687	-1363.686401367188	972.4582519531252	369.6270751953124	-1370.6015625	964.7143554687502	412.9482727050781	-1271.70654296875	760.9049072265626	420.7526245117187	-1331.549194335938	765.0244140625001	477.2933044433593	-1250.70361328125	674.2264404296876	439.3220520019531	-1343.684326171875	685.3899536132814	477.7589111328124	
3	0.02	-1179.136962890625	849.075866699219	77.71421051025378	-1352.080688476563	889.5852661132815	172.2999420166014	-1347.831298828125	880.8524169921877	260.6369323730468	-1165.042236328125	850.9619140625002	315.7615966796874	-1278.89013671875	777.280944824219	23.59193229675278	-1384.192016601563	438.5159301757814	69.17466735839828	-1361.346069335938	420.228729248047	180.6457366943358	-1423.828491210938	386.0397338867189	67.48858642578109	-1373.230590820313	344.2081298828126	113.8661956787108	-1569.871826171875	97.653678894043	115.9663619995115	-1544.498901367188	104.3084411621094	204.1771087646483	-1623.159545898438	75.74105072021486	161.7651214599608	-1449.728271484375	26.66144943237305	192.6415405273436	-1436.094360351563	35.24478912353516	131.3051910400389	-1492.840454101563	24.36460494995118	86.59275817871077	-1245.002563476563	750.7363891601564	383.5152587890624	-1085.980102539063	435.7587280273439	356.9390258789062	-1060.46923828125	432.2595825195314	237.6045532226562	-1075.026733398438	373.3047485351563	359.8577575683593	-1008.721862792969	394.7337646484376	316.2969360351562	-947.824401855469	80.34851837158205	324.3109130859374	-915.3854980468752	116.7049789428711	246.9882812499999	-959.0293579101565	26.86058235168458	262.6325073242187	-797.1507568359377	119.1829681396485	275.2322692871093	-808.055114746094	120.3048629760742	332.1455078124999	-843.8480224609377	74.81479644775392	362.4337768554687	-1300.818481445313	1353.926879882813	216.4336090087889	-1371.106201171875	1124.329833984375	202.7392730712889	-1135.951782226563	1120.011108398438	210.6195983886718	-1175.179931640625	1283.68603515625	219.935562133789	-1361.656372070313	1168.160278320313	102.8350143432616	-1338.24658203125	1296.562622070313	118.9953765869139	-1252.72607421875	1297.095947265625	18.63990592956528	-1214.867431640625	1307.625854492188	42.06435775756822	-1189.975952148438	1034.66259765625	-67.55189514160172	-1217.512084960938	987.6685180664065	-0.3480243086816372	-1212.406494140625	984.0518798828127	-53.56513214111344	-999.7766113281252	894.757019042969	21.58352088928211	-1016.428100585938	864.345642089844	-49.42560958862319	-924.2280273437502	853.4006958007815	31.12959289550771	-971.687927246094	800.3748779296877	-40.89355087280286	-1386.455444335938	1161.499145507813	308.227325439453	-1351.5419921875	1285.154174804688	295.2061462402343	-1285.643188476563	1272.600219726563	403.9331359863281	-1234.99560546875	1275.64306640625	398.6463012695312	-1326.4892578125	979.1807861328127	448.0545043945312	-1349.18701171875	971.0087890625002	370.5960388183593	-1356.367919921875	963.4112548828127	413.9055175781249	-1259.639526367188	758.7056274414064	422.1254577636718	-1319.546142578125	763.4459838867189	478.4951477050781	-1239.600219726563	671.6818237304689	440.7511596679687	-1332.462768554688	683.9738769531251	479.0034179687499	
4	0.03	-1163.368286132813	847.837585449219	78.50377655029284	-1335.969360351563	888.2391357421877	174.079635620117	-1331.519897460938	879.649353027344	262.3732604980468	-1148.3232421875	850.2927246093752	316.5444335937499	-1263.907592773438	776.4531250000002	24.74340820312485	-1371.35693359375	438.6145629882814	68.62915039062484	-1347.8271484375	419.1262817382814	180.1946868896483	-1412.271362304688	387.0169677734376	66.95988464355453	-1362.419189453125	343.5588989257813	112.6424407958983	-1566.755615234375	102.5915451049805	114.805694580078	-1540.638671875	108.4198455810547	202.6971435546874	-1620.278930664063	82.7904510498047	160.9999847412108	-1449.893676757813	26.57958412170411	192.4896240234374	-1436.146728515625	34.74102783203126	130.9421539306639	-1492.812133789063	24.46306228637696	86.6332931518553	-1227.49951171875	750.2382812500001	384.9168395996093	-1068.449340820313	435.663787841797	357.1341552734374	-1043.9130859375	432.4503173828126	237.9198760986328	-1058.230346679688	372.7270507812501	360.0744018554687	-992.1337890625002	393.2905883789064	315.6707763671874	-938.8399658203127	77.81917572021486	323.2996215820312	-905.8732910156252	113.11767578125	245.6206665039062	-952.2199707031252	25.30637931823731	261.7677307128906	-787.8193359375002	112.0919036865235	273.1261596679687	-798.0791015625002	113.274658203125	330.2201232910156	-835.0593872070315	68.94510650634767	360.5335998535156	-1286.3779296875	1352.505981445313	218.3462677001952	-1355.962768554688	1122.564453125	204.7085113525389	-1121.093872070313	1118.918334960938	212.3019409179687	-1160.581665039063	1282.467163085938	221.629653930664	-1347.225952148438	1166.452392578125	105.1458282470702	-1324.002807617188	1294.927001953125	120.991371154785	-1238.808349609375	1295.424560546875	20.48278045654282	-1200.778686523438	1306.101806640625	43.70830154418931	-1176.764038085938	1033.247924804688	-66.27259826660172	-1203.899047851563	986.0398559570315	0.9852014183996636	-1198.87841796875	982.4475708007815	-52.2947959899904	-985.7512817382815	894.5244750976565	22.97892761230457	-1001.889099121094	864.127380371094	-48.0150184631349	-909.8735351562502	853.9880371093752	32.62210845947255	-956.6148681640627	800.4843750000002	-39.47158432006848	-1371.519897460938	1159.898803710938	310.1761169433593	-1336.811279296875	1283.706298828125	297.222686767578	-1270.724609375	1271.261352539063	405.8375549316406	-1220.135864257813	1274.17236328125	400.4809570312499	-1311.988525390625	977.8305664062502	449.2767333984374	-1334.3798828125	969.8843994140627	371.6672973632811	-1341.817260742188	962.422546386719	414.9928283691406	-1247.163818359375	756.8739013671876	423.5723876953124	-1307.178100585938	762.1999511718751	479.7771301269531	-1228.089111328125	669.5195312500001	442.2582397460937	-1320.87109375	682.8914794921876	480.2882995605468	
